<svg xmlns="http://www.w3.org/2000/svg" xmlns:xlink="http://www.w3.org/1999/xlink" viewBox="0 0 909 502">
  <defs>
    <style>
      .cls-1, .cls-2, .cls-3 {
      fill: none;
      stroke-miterlimit: 10;
      }

      .cls-1 {
      stroke-dasharray: 12;
      stroke: url(#linear-gradient);
      }

      .cls-2 {
      stroke: url(#linear-gradient-2);
      }

      .cls-3 {
      stroke: url(#linear-gradient-3);
      }
    </style>
    <linearGradient id="linear-gradient" x1="640.5" y1="625" x2="640.5" y2="123" gradientUnits="userSpaceOnUse">
      <stop offset="0" stop-color="#0070aa"/>
      <stop offset="0.5" stop-color="#000203"/>
      <stop offset="1" stop-color="#0070aa"/>
    </linearGradient>
    <linearGradient id="linear-gradient-2" x1="70.79" y1="374" x2="169.29" y2="374" gradientTransform="matrix(-1, 0, 0, 1, 403.75, 0)" gradientUnits="userSpaceOnUse">
      <stop offset="0"/>
      <stop offset="1" stop-color="#0060c8"/>
    </linearGradient>
    <linearGradient id="linear-gradient-3" x1="1045.97" y1="374" x2="947.38" y2="374" gradientUnits="userSpaceOnUse">
      <stop offset="0" stop-color="#1b1464"/>
      <stop offset="1" stop-color="#0060c8"/>
    </linearGradient>
  </defs>
  <title>3dPipeV3</title>
  <g id="REAR">
    <path class="cls-1" d="M352.5,124.5m0-1,603.5,1H242.6m720.4,3H250.3m720.7,3H257.8m720.2,6H265.1m719.9,7s-442.9.5-581,.5H376.4c-15.3,0-104.1-1-104.1-1m720,8.5-713-.3m719.6,9.3-713,.3M1005,171.5l-712.7.2m719.1,11.8-713.1.4M1017,196.5l-713.5.5m718.7,14.5H309.1m717.8,14.9-713,.6M1031,242.5l-712.9.9m716.2,17.1H321.9m716.3,18-713.1-.2m715.7,18.2-713.1.2M948,123.5H235m808,192H329.8M1044,334.5l-712.7.4M1045,353.5l-712.8.9M1046,374.5,332.5,374M1045,393.5H332.2M1044,413.5l-712.7-.4M1043,431.5l-713.2.9m711,18.1-713.1.8m710.5,18.2-713.1.2M1035,486.5l-713.1,1m709.3,17H318.1m708.8,15.9-713,.4M1022,535.5l-712.9.9M1017,550.5l-713.5.5M1011,564.5l-712.7-.4m707.1,12.4-713.1-.2M999,586.5l-713.1.7m706.4,9.3-713,.3m706,7.7-713,.5M978,611.5l-712.9.3M971,617.5l-713.2-.4M963,620.5l-712.7.4M720,624.5s-314.2-.5-484.6-.5M956,622.5l-713.4.7" transform="translate(-137 -123)"/>
    <path class="cls-2" d="M235,124m0,500,97.5-250-29.2,0M235,199m.2-73.5M332.5,374,235,124m97.2,269.6L242.6,124.8m88.7,288.3-81-286m7.5,3.8,72,301.5M265.1,136.2l62.6,315.1m-2.6,18.4L272.3,143m49.6,344.5L279.3,151.2m6.6,9.6,32.2,343.8m-4.2,16.3L292.3,171.7m16.8,364.7L298.3,183.9M303.5,551V197m-5.2,367.1,10.8-352.5M292.3,576.3l21.6-349.2m-28,360.1,32.2-343.8M279.3,596.8l42.6-336.3M272.3,605l52.8-326.7m-60,333.5,62.6-315.1M257.8,617.1l72-301.5M250.3,620.9l81-286M242.6,623.2l89.6-268.8M235,624l97.5-250M235,197.5h69M235,551.3l63.3,12.8M235,196.7l74.1,14.9M235,553l57.3,23.3M235.1,195l78.8,32.1M235,555.8l50.9,31.4M235.1,192.3l83,51.1M235,559.9l44.3,36.9M235,188.2l86.9,72.3M235,565.3,272.3,605M235,182.6l90.1,95.7M235,572.4l30.1,39.4M235,175.6l92.7,121.1M235,581.3l22.8,35.8M235,166.7l94.8,148.9M235.2,592.8l15.1,28.1m81-286L235,155.6m0,450.9,7.6,16.7M235,141.5l97.2,212.9M235,141.5l7.6-16.7M235,155.5l15.3-28.4m7.5,3.8L235,166.7m30.1-30.5L235,175.6M272.3,143,235,182.7m0,5.4,44.3-36.9m-44.3,41,50.9-31.4M235,195l57.3-23.3m-57.3,25,63.3-12.8M235,606.5l97.2-212.9m-.9,19.5L234.9,592.7m.1-11.4,94.8-148.9M235,572.4l92.7-121.1m-2.6,18.4L235,565.3m86.9-77.8L235,559.9m83.1-55.3L235,555.8m78.9-34.9L235,553m0-1.7,74.1-14.9M304,550.5H235" transform="translate(-137 -123)"/>
    <path class="cls-3" d="M1045.5,374m-29.3,0M948,624l97.5-250M955.6,623.2l89.6-268.8M963.3,620.9l81-286M970.8,617.1l72-301.5M978.1,611.8l62.6-315.1M985.3,605l52.8-326.7M992.3,596.8l42.6-336.3m-36,326.7,32.2-343.8m-25.8,332.9,21.6-349.2m-15.6,337,10.8-352.5M1016.5,551V197m5.6,339.4-10.8-352.5m15.6,337-21.6-349.2m25.8,332.9L998.9,160.8m36,326.7L992.3,151.2m45.8,318.5L985.3,143m55.4,308.3L978.1,136.2m64.7,296.2-72-301.5m73.5,282.2-81-286m81.9,266.5L955.6,124.8M1045.5,374,948,124m69,73.5H948m74.1,338.9L948,551.3m63.3-367.4L948,196.7m78.9,324.2L948,553m-.1-358,57.4-23.3m25.8,332.9L948,555.8m50.9-395-51,31.5m87,295.2L948,559.9m44.3-408.7-44.3,37m90.1,281.5L948,565.3M985.3,143,948,182.6m92.7,268.7L948,572.4m30.1-436.2L948,175.6m94.8,256.8L948,581.3m22.8-450.4L948,166.7m96.3,246.4L947.8,592.8m15.5-465.7L948,155.6m97.2,238L948,606.5m7.6-481.7L948,141.5m0,0,97.2,212.9M948,155.5l96.3,179.4M948,166.7l94.8,148.9m-2.1-18.9L948,175.6m90.1,102.7L948,182.7m86.9,77.8L948,188.1m0,4.1,83.1,51.2m-4.2-16.3L948,195m0,1.7,74.1,14.9M955.6,623.2,948,606.5m.1-13.8,15.2,28.2m7.5-3.8L948,581.3m30.1,30.5L948,572.4m0-7.1L985.3,605m7-8.2L948,559.9m50.9,27.3L948,555.8m57.3,20.5L948,553m63.3,11.1L948,551.3m69-.8H948" transform="translate(-137 -123)"/>
  </g>
</svg>
