<svg xmlns="http://www.w3.org/2000/svg" xmlns:xlink="http://www.w3.org/1999/xlink" viewBox="0 0 909 502">
  <defs>
    <style>
      .cls-1, .cls-10, .cls-11, .cls-3, .cls-6, .cls-8 {
      fill: none;
      stroke-miterlimit: 10;
      }

      .cls-6 {
      stroke: url(#linear-gradient-6);
      }

      .cls-7 {
      fill: url(#linear-gradient-7);
      }

      .cls-8 {
      stroke: url(#linear-gradient-8);
      }

      .cls-9 {
      fill: url(#linear-gradient-9);
      }

      .cls-10 {
      stroke: url(#linear-gradient-10);
      }

      .cls-11 {
      stroke: url(#linear-gradient-11);
      }
    </style>
    <linearGradient id="linear-gradient-6" x1="591.49" y1="624.82" x2="591.49" y2="123" gradientUnits="userSpaceOnUse">
      <stop offset="0" stop-color="#0091ea"/>
      <stop offset="0.5" stop-color="blue"/>
      <stop offset="1" stop-color="#0091ea"/>
    </linearGradient>
    <linearGradient id="linear-gradient-7" x1="850.41" y1="374" x2="951.72" y2="374" gradientUnits="userSpaceOnUse">
      <stop offset="0" stop-color="#2255ee"/>
      <!--<stop offset="0.1" stop-color="#c3dcf4"/>-->
      <!--<stop offset="0.27" stop-color="#a9d2f2"/>-->
      <!--<stop offset="0.48" stop-color="#80c2f0"/>-->
      <!--<stop offset="0.73" stop-color="#46aced"/>-->
      <stop offset="0.99" stop-color="#0080d9"/>
      <!--<stop offset="0.99" stop-color="#0091ea"/>-->
    </linearGradient>
    <linearGradient id="linear-gradient-8" x1="850.03" y1="374" x2="948.54" y2="374" gradientUnits="userSpaceOnUse">
      <stop offset="0" stop-color="lightblue"/>
      <stop offset="1" stop-color="#0070d9"/>
    </linearGradient>
    <linearGradient id="linear-gradient-9" x1="71.16" y1="374" x2="172.48" y2="374" gradientTransform="matrix(-1, 0, 0, 1, 403.75, 0)" xlink:href="#linear-gradient-7"/>
    <linearGradient id="linear-gradient-10" x1="70.79" y1="374" x2="169.29" y2="374" gradientTransform="matrix(-1, 0, 0, 1, 403.75, 0)" xlink:href="#linear-gradient-8"/>
    <linearGradient id="linear-gradient-11" x1="591.49" y1="624.04" x2="591.49" y2="622.73" xlink:href="#linear-gradient-6"/>
  </defs>
  <title>3dPipeV2</title>

  <g id="TOP">
    <g>
      <path class="cls-6" d="M352.5,123.5m588.5,1H242.6m690.4,3H250.2m675.8,3H257.8m660.2,6H265.1m645.9,7H404m375,0H272m631.7,8H279.3m617.8,9H285.7m605.3,11H292.4m592.6,12H298.4m581.6,14H304m570,14H309.2m560.8,16H313.9m551,16H318.2m542.8,17H321.6m536.4,18H325.2m530.8,18H327.7M948,123.5l-713,.2M854,315.5H329.9m522.1,19H331.4m519.6,20H332.3m518.7,19H332.5m518.5,20H332.3m519.7,20H331.4m522.6,19H329.9m526.1,19H327.8m530.2,18H325.2m536.8,18H322m543,17H318.2m551.8,16H313.9m560.1,16H309.2m570.8,14H304m581,14H298.4m592.6,12H292.4m605.6,11H286m618,9H279.3m631.4,8H272.1m645.9,7H265.1m660.9,6H257.8m675.2,3H250.2m690.8,3,7,0s-540.6.8-713,.8" transform="translate(-137 -123)"/>
      <g>
        <path class="cls-7" d="M854.1,383.5l-3.7-9.5,3.7-9.5-3.4-10.1,4-8.7-3.1-10.9,4.2-7.8-2.7-11.4,4.5-7-2.4-12,4.6-6-2-12.4,4.9-5.1L861,260.4l5-4.2-1.2-13,5.1-3.1-.8-13.2,5.1-2.1-.4-13.4,5.2-1V197h5.2l.4-13.3,5.2,1,.8-13.2,5.2,2.1,1.2-13,5.1,3.1,1.6-12.7,5,4.1,2-12.4,4.8,5.2,2.4-12,4.6,6.1,2.7-11.4,4.5,7,3.1-10.8,4.2,7.8,3.4-10.1,3.9,8.6,3.7-9.4,3.7,9.4-3.7,8.1,3.5,7.6-3.5,6.4h.1l3.2,6-3.3,5.1,3.1,4.9-3.1,4h0l3,3.9-3,3.2h0l-2.9,3.1,2.9,2.4-2.8,2.3L948,192l-2.7,1.7,2.7,1.1-2.7,1.1,2.7.6h0l-2.7.5-5.4,1.1-5.3,2.2-5.3,3.2-5.2,4.3-5,5.3-4.8,6.3-4.7,7.3-4.3,8.2-4.2,9-3.8,9.9-3.5,10.5-3.2,11.3-2.8,11.8-2.5,12.4-2.1,12.9-1.7,13.2-1.2,13.5-.9,13.8L879,367v14l.4,13.8.9,13.8,1.2,13.5,1.7,13.2,2.1,12.9,2.5,12.4,2.8,11.8,3.2,11.3,3.5,10.5,3.8,9.9,4.2,9,4.3,8.2,4.7,7.3,4.8,6.3,5,5.3,5.2,4.3,5.3,3.2,5.3,2.2,5.4,1.1,2.7.5h0l-2.7.6,2.7,1.1-2.7,1.1L948,556l-2.8,1.8,2.8,2.3-2.9,2.4,2.9,3.1,3,3.2-3,3.9,3.1,4-3.1,4.9,3.3,5.1-3.3,6.1.2.3,3.3,6.1-3.5,7.6h0l3.7,8.1-3.7,9.4-3.7-9.4-3.9,8.6L937,613.4l-4.2,7.8-3.1-10.8-4.5,7L922.5,606l-4.6,6.1-2.4-12-4.8,5.2-2-12.4-5,4.1-1.6-12.7-5.1,3.1-1.2-13-5.2,2.1-.8-13.2-5.2,1-.4-13.3H879V537.6l-5.2-1,.4-13.4-5.1-2.1.8-13.2-5.1-3.1,1.2-13-5-4.2,1.7-12.7-4.9-5.1,2-12.4-4.6-6,2.4-12-4.5-7,2.7-11.4-4.2-7.8,3.1-10.9-4-8.7Z" transform="translate(-137 -123)"/>
        <path class="cls-8" d="M948,124m0,500M850.5,374m29.2,0M948,199m-.2-73.5M850.5,374,948,124M850.8,393.6l89.6-268.8M851.7,413.1l81-286m-7.5,3.8-72,301.5m64.7-296.2L855.3,451.3m2.6,18.4L910.7,143M861.1,487.5l42.6-336.3m-6.6,9.6L864.9,504.6m4.2,16.3,21.6-349.2M873.9,536.4l10.8-352.5M879.5,551V197m5.2,367.1L873.9,211.6m16.8,364.7L869.1,227.1m28,360.1L864.9,243.4m38.8,353.4L861.1,260.5M910.7,605,857.9,278.3m60,333.5L855.3,296.7m69.9,320.4-72-301.5m79.5,305.3-81-286m88.7,288.3L850.8,354.4M948,624,850.5,374M948,197.5H879m69,353.8-63.3,12.8M948,196.7l-74.1,14.9M948,553l-57.3,23.3M947.9,195l-78.8,32.1M948,555.8l-50.9,31.4m50.8-394.9-83,51.1M948,559.9l-44.3,36.9M948,188.2l-86.9,72.3M948,565.3,910.7,605M948,182.6l-90.1,95.7M948,572.4l-30.1,39.4M948,175.6,855.3,296.7M948,581.3l-22.8,35.8M948,166.7,853.2,315.6m94.6,277.2-15.1,28.1m-81-286L948,155.6m0,450.9-7.6,16.7M948,141.5,850.8,354.4M948,141.5l-7.6-16.7m7.6,30.7-15.3-28.4m-7.5,3.8L948,166.7m-30.1-30.5L948,175.6M910.7,143,948,182.7m0,5.4-44.3-36.9m44.3,41-50.9-31.4M948,195l-57.3-23.3m57.3,25-63.3-12.8M948,606.5,850.8,393.6m.9,19.5,96.4,179.6m-.1-11.4L853.2,432.4m94.8,140L855.3,451.3m2.6,18.4L948,565.3m-86.9-77.8L948,559.9m-83.1-55.3L948,555.8m-78.9-34.9L948,553m0-1.7-74.1-14.9m5.1,14.1h69" transform="translate(-137 -123)"/>
      </g>
      <g>
        <path class="cls-9" d="M328.9,383.5l3.7-9.5-3.7-9.5,3.4-10.1-4-8.7,3.1-10.9-4.2-7.8,2.7-11.4-4.5-7,2.4-12-4.6-6,2-12.4-4.9-5.1,1.7-12.7-5-4.2,1.2-13-5.1-3.1.8-13.2-5.1-2.1.4-13.4-5.2-1V197h-5.2l-.4-13.3-5.2,1-.8-13.2-5.2,2.1-1.2-13-5.1,3.1L279.3,151l-5,4.1-2-12.4-4.8,5.2-2.4-12-4.6,6.1-2.7-11.4-4.5,7-3.1-10.8-4.2,7.8-3.4-10.1-3.9,8.6-3.7-9.4-3.7,9.4,3.7,8.1-3.5,7.6,3.5,6.4h-.1l-3.2,6,3.3,5.1-3.1,4.9,3.1,4h0l-3,3.9,3,3.2h0l2.9,3.1-2.9,2.4,2.8,2.3L235,192l2.7,1.7-2.7,1.1,2.7,1.1-2.7.6h0l2.7.5,5.4,1.1,5.3,2.2,5.3,3.2,5.2,4.3,5,5.3,4.8,6.3,4.7,7.3,4.3,8.2,4.2,9,3.8,9.9,3.5,10.5,3.2,11.3,2.8,11.8,2.5,12.4,2.1,12.9,1.7,13.2,1.2,13.5.9,13.8L304,367v14l-.4,13.8-.9,13.8-1.2,13.5-1.7,13.2-2.1,12.9-2.5,12.4-2.8,11.8-3.2,11.3-3.5,10.5-3.8,9.9-4.2,9-4.3,8.2-4.7,7.3-4.8,6.3-5,5.3-5.2,4.3-5.3,3.2-5.3,2.2-5.4,1.1-2.7.5h0l2.7.6-2.7,1.1,2.7,1.1L235,556l2.8,1.8-2.8,2.3,2.9,2.4-2.9,3.1-3,3.2,3,3.9-3.1,4,3.1,4.9-3.3,5.1,3.3,6.1-.2.3-3.3,6.1,3.5,7.6h0l-3.7,8.1,3.7,9.4,3.7-9.4,3.9,8.6,3.4-10.1,4.2,7.8,3.1-10.8,4.5,7,2.7-11.4,4.6,6.1,2.4-12,4.8,5.2,2-12.4,5,4.1,1.6-12.7,5.1,3.1,1.2-13,5.2,2.1.8-13.2,5.2,1,.4-13.3H304V537.6l5.2-1-.4-13.4,5.1-2.1-.8-13.2,5.1-3.1-1.2-13,5-4.2-1.7-12.7,4.9-5.1-2-12.4,4.6-6-2.4-12,4.5-7L327.2,421l4.2-7.8-3.1-10.9,4-8.7Z" transform="translate(-137 -123)"/>
        <path class="cls-10" d="M235,124m0,500,97.5-250-29.2,0M235,199m.2-73.5M332.5,374,235,124m97.2,269.6L242.6,124.8m88.7,288.3-81-286m7.5,3.8,72,301.5M265.1,136.2l62.6,315.1m-2.6,18.4L272.3,143m49.6,344.5L279.3,151.2m6.6,9.6,32.2,343.8m-4.2,16.3L292.3,171.7m16.8,364.7L298.3,183.9M303.5,551V197m-5.2,367.1,10.8-352.5M292.3,576.3l21.6-349.2m-28,360.1,32.2-343.8M279.3,596.8l42.6-336.3M272.3,605l52.8-326.7m-60,333.5,62.6-315.1M257.8,617.1l72-301.5M250.3,620.9l81-286M242.6,623.2l89.6-268.8M235,624l97.5-250M235,197.5h69M235,551.3l63.3,12.8M235,196.7l74.1,14.9M235,553l57.3,23.3M235.1,195l78.8,32.1M235,555.8l50.9,31.4M235.1,192.3l83,51.1M235,559.9l44.3,36.9M235,188.2l86.9,72.3M235,565.3,272.3,605M235,182.6l90.1,95.7M235,572.4l30.1,39.4M235,175.6l92.7,121.1M235,581.3l22.8,35.8M235,166.7l94.8,148.9M235.2,592.8l15.1,28.1m81-286L235,155.6m0,450.9,7.6,16.7M235,141.5l97.2,212.9M235,141.5l7.6-16.7M235,155.5l15.3-28.4m7.5,3.8L235,166.7m30.1-30.5L235,175.6M272.3,143,235,182.7m0,5.4,44.3-36.9m-44.3,41,50.9-31.4M235,195l57.3-23.3m-57.3,25,63.3-12.8M235,606.5l97.2-212.9m-.9,19.5L234.9,592.7m.1-11.4,94.8-148.9M235,572.4l92.7-121.1m-2.6,18.4L235,565.3m86.9-77.8L235,559.9m83.1-55.3L235,555.8m78.9-34.9L235,553m0-1.7,74.1-14.9M304,550.5H235" transform="translate(-137 -123)"/>
      </g>
      <path class="cls-11" d="M940.4,623.2l-697.8.3" transform="translate(-137 -123)"/>
    </g>
  </g>
</svg>
