<svg xmlns="http://www.w3.org/2000/svg" xmlns:xlink="http://www.w3.org/1999/xlink" viewBox="0 0 909 502">
  <defs>
    <style>
      .cls-1, .cls-3, .cls-5, {
      fill: none;
      stroke-miterlimit: 10;
      }

      .cls-1 {
      stroke-dasharray: 12;
      stroke: url(#linear-gradient);
      }

      .cls-2 {
      fill: url(#linear-gradient-2);
      }

      .cls-3 {
      stroke: url(#linear-gradient-3);
      }

      .cls-4 {
      fill: url(#linear-gradient-4);
      }

      .cls-5 {
      stroke: url(#linear-gradient-5);
      }
    </style>
    <linearGradient id="linear-gradient" x1="591.7" y1="625" x2="591.7" y2="123" gradientUnits="userSpaceOnUse">
      <stop offset="0" stop-color="#0080d9"/>
      <stop offset="0.01" stop-color="#0080d9" stop-opacity="0.97"/>
      <stop offset="0.06" stop-color="#0068a7" stop-opacity="0.86"/>
      <stop offset="0.12" stop-color="#004c7b" stop-opacity="0.76"/>
      <stop offset="0.17" stop-color="#003555" stop-opacity="0.68"/>
      <stop offset="0.23" stop-color="#002136" stop-opacity="0.62"/>
      <stop offset="0.29" stop-color="#00131e" stop-opacity="0.56"/>
      <stop offset="0.35" stop-color="#00080d" stop-opacity="0.53"/>
      <stop offset="0.42" stop-color="#000203" stop-opacity="0.51"/>
      <stop offset="0.5" stop-opacity="0.5"/>
      <stop offset="0.58" stop-color="#000203" stop-opacity="0.51"/>
      <stop offset="0.65" stop-color="#00080d" stop-opacity="0.53"/>
      <stop offset="0.71" stop-color="#00131e" stop-opacity="0.56"/>
      <stop offset="0.77" stop-color="#002136" stop-opacity="0.62"/>
      <stop offset="0.83" stop-color="#003555" stop-opacity="0.68"/>
      <stop offset="0.88" stop-color="#004c7b" stop-opacity="0.76"/>
      <stop offset="0.94" stop-color="#0068a7" stop-opacity="0.86"/>
      <stop offset="0.99" stop-color="#0080d9" stop-opacity="0.97"/>
      <stop offset="1" stop-color="#0080d9"/>
    </linearGradient>
    <linearGradient id="linear-gradient-2" x1="1043.13" y1="374" x2="1143.64" y2="374" gradientTransform="matrix(-1, 0, 0, 1, 1144.01, -123)" gradientUnits="userSpaceOnUse">
      <stop offset="0" stop-color="#0080d9"/>
      <stop offset="0.99" stop-color="#0039a5"/>
    </linearGradient>
    <linearGradient id="linear-gradient-3" x1="1144.01" y1="374" x2="1045.43" y2="374" gradientTransform="matrix(-1, 0, 0, 1, 1281.05, 0)" gradientUnits="userSpaceOnUse">
      <stop offset="0"/>
      <stop offset="1" stop-color="#0070d9"/>
    </linearGradient>
    <linearGradient id="linear-gradient-4" x1="808.05" y1="251" x2="908.56" y2="251" gradientTransform="matrix(1, 0, 0, 1, 0, 0)" xlink:href="#linear-gradient-2"/>
    <linearGradient id="linear-gradient-5" x1="1045.97" y1="374" x2="947.38" y2="374" gradientTransform="matrix(1, 0, 0, 1, 0, 0)" xlink:href="#linear-gradient-3"/>
  </defs>
  <title>3dPipeV2</title>
  <g id="REAR">
    <path class="cls-1" d="M352.5,124.5m0-1,603.5,1H227.4m735.6,3H219.8m751.2,3H212.2m765.8,6H204.9m780.1,7s-442.9.5-581,.5H197.7m794.6,7.5-802,.3m808.6,8.7-815.2-.3M1005,171.5l-827.4,1m833.8,11-840.3,1m845.9,12H166.1m856.1,15-861.4,1m866.1,14H156.2m874.8,16H151.8m882.5,18-886.2,1m890.1,17-893.1.2m895.7,17.8-898.7-.2M948,123.5H235m808,192-902.9,1m903.9,18-905.4,1m906.4,18H137.7m908.3,21H137.4m907.6,19-904.9,1m903.9,19-905.4.4M1043,431.5H140.1m900.7,19H142.5m895.7,19-893.4,1m890.2,16H148m883.2,18-879,1m874.7,15-870.7,1m865.8,14H160.8m856.2,15-851,1m845,13-839.4.4m833.8,11.6-827.8.2M999,586.5H183.6m808.7,10-801.6,1m794.6,7-787.2,1m779.9,6-773.1-.3M971,617.5l-758.8.4M963,620.5l-743.2-.4M720,624.5s-314.2-.5-484.6-.5M956,622.5H227.4" transform="translate(-137 -123)"/>
    <g>
      <polygon class="cls-2" points="100.8 434.8 98 433 100.8 431.3 98 430.2 100.7 429.1 98 428.5 98 428.5 100.7 428 98 428 95.3 428 89.9 426.9 84.5 424.7 79.2 421.5 74.1 417.2 69.1 411.9 64.2 405.6 59.6 398.3 55.2 390.1 51.1 381.1 47.3 371.2 43.7 360.7 40.6 349.4 37.7 337.6 35.3 325.2 33.2 312.3 31.5 299.1 30.2 285.6 29.4 271.8 29 258 29 244 29.4 230.2 30.2 216.4 31.5 202.9 33.2 189.7 35.3 176.8 37.7 164.4 40.6 152.6 43.7 141.3 47.3 130.8 51.1 120.9 55.2 111.9 59.6 103.7 64.2 96.4 69.1 90.1 74.1 84.8 79.2 80.5 84.5 77.3 89.9 75.1 95.3 74 98.2 74 100.7 74 98 73.5 98 73.5 98 73.5 100.7 72.9 98 71.8 100.8 70.7 98 69 100.8 67.2 98 64.9 100.9 62.5 98 59.4 98 59.4 95 56.2 98 52.3 98 52.3 94.9 48.3 98 43.4 94.7 38.3 97.9 32.3 98 32.2 94.5 25.8 98 18.2 94.3 10.1 90.3 1.5 86.9 11.6 82.7 3.8 79.7 14.6 75.2 7.6 72.5 19 67.8 12.9 65.5 24.9 60.6 19.7 58.6 32.1 53.7 28 52.1 40.7 47 37.6 45.8 50.6 40.6 48.5 39.8 61.7 34.6 60.7 34.2 74 29 74 29 87.4 23.8 88.4 24.2 101.8 19 103.9 19.8 117.1 14.8 120.2 16 133.2 11 137.4 12.6 150.1 7.8 155.2 9.8 167.6 5.2 173.6 7.5 185.6 3.1 192.6 5.8 204 1.6 211.8 4.6 222.7 0.7 231.4 4.1 241.5 0.4 251 4.1 260.5 0.7 270.6 4.6 279.3 1.6 290.2 5.8 298 3.1 309.4 7.5 316.4 5.2 328.4 9.8 334.4 7.8 346.8 12.6 351.9 11 364.6 16 368.8 14.8 381.8 19.8 384.9 19 398.1 24.2 400.2 23.8 413.6 29 414.6 29 428 34.2 428 34.6 441.3 39.8 440.3 40.6 453.5 45.8 451.4 47 464.4 52.1 461.3 53.7 474 58.6 469.9 60.6 482.3 65.5 477.1 67.8 489.1 72.5 483 75.2 494.4 79.7 487.4 82.7 498.2 86.9 490.4 90.3 500.5 94.3 491.9 98 483.8 98 483.8 94.5 476.2 97.8 470.1 98 469.8 94.7 463.7 98 458.6 94.9 453.7 98 449.7 95 445.8 98 442.6 100.9 439.5 98 437.1 100.8 434.8"/>
      <path class="cls-3" d="M137.5,374m29.3,0M235,624,137.5,374m89.9,249.2L137.8,354.4m81.9,266.5-81-286m73.5,282.2-72-301.5m64.7,296.2L142.3,296.7M197.7,605,144.9,278.3m45.8,318.5L148.1,260.5m36,326.7L151.9,243.4m25.8,332.9L156.1,227.1m15.6,337L160.9,211.6M166.5,551V197m-5.6,339.4,10.8-352.5m-15.6,337,21.6-349.2M151.9,504.6l32.2-343.8m-36,326.7,42.6-336.3M144.9,469.7,197.7,143M142.3,451.3l62.6-315.1M140.2,432.4l72-301.5M138.7,413.1l81-286M137.8,393.6l89.6-268.8M137.5,374,235,124m-69,73.5h69M160.9,536.4,235,551.3M171.7,183.9,235,196.7M156.1,520.9,235,553m.1-358-57.4-23.3M151.9,504.6,235,555.8m-50.9-395,51,31.5m-87,295.2L235,559.9M190.7,151.2l44.3,37M144.9,469.7,235,565.3M197.7,143,235,182.6M142.3,451.3,235,572.4M204.9,136.2,235,175.6M140.2,432.4,235,581.3M212.2,130.9,235,166.7M138.7,413.1l96.5,179.7M219.7,127.1,235,155.6m-97.2,238L235,606.5m-7.6-481.7,7.6,16.7m0,0L137.8,354.4M235,155.5,138.7,334.9M235,166.7,140.2,315.6m2.1-18.9L235,175.6M144.9,278.3,235,182.7m-86.9,77.8L235,188.1m0,4.1-83.1,51.2m4.2-16.3L235,195m0,1.7-74.1,14.9m66.5,411.6,7.6-16.7m-.1-13.8-15.2,28.2m-7.5-3.8L235,581.3m-30.1,30.5L235,572.4m0-7.1L197.7,605m-7-8.2L235,559.9m-50.9,27.3L235,555.8m-57.3,20.5L235,553m-63.3,11.1L235,551.3m-69-.8h69" transform="translate(-137 -123)"/>
    </g>
    <g>
      <polygon class="cls-4" points="808.1 434.8 810.9 433 808.2 431.3 810.9 430.2 808.2 429.1 810.9 428.5 810.9 428.5 808.2 428 810.9 428 813.6 428 819.1 426.9 824.4 424.7 829.7 421.5 834.8 417.2 839.9 411.9 844.7 405.6 849.3 398.3 853.7 390.1 857.8 381.1 861.7 371.2 865.2 360.7 868.4 349.4 871.2 337.6 873.7 325.2 875.7 312.3 877.4 299.1 878.7 285.6 879.5 271.8 880 258 880 244 879.5 230.2 878.7 216.4 877.4 202.9 875.7 189.7 873.7 176.8 871.2 164.4 868.4 152.6 865.2 141.3 861.7 130.8 857.8 120.9 853.7 111.9 849.3 103.7 844.7 96.4 839.9 90.1 834.8 84.8 829.7 80.5 824.4 77.3 819.1 75.1 813.6 74 810.8 74 808.2 74 810.9 73.5 810.9 73.5 810.9 73.5 808.2 72.9 810.9 71.8 808.2 70.7 810.9 69 808.1 67.2 810.9 64.9 808 62.5 810.9 59.4 810.9 59.4 813.9 56.2 810.9 52.3 810.9 52.3 814 48.3 810.9 43.4 814.2 38.3 811 32.3 810.9 32.2 814.4 25.8 810.9 18.2 814.6 10.1 818.6 1.5 822 11.6 826.2 3.8 829.3 14.6 833.7 7.6 836.5 19 841.1 12.9 843.5 24.9 848.3 19.7 850.3 32.1 855.3 28 856.9 40.7 861.9 37.6 863.2 50.6 868.3 48.5 869.1 61.7 874.3 60.7 874.7 74 880 74 880 87.4 885.2 88.4 884.8 101.8 889.9 103.9 889.1 117.1 894.2 120.2 893 133.2 897.9 137.4 896.3 150.1 901.1 155.2 899.1 167.6 903.8 173.6 901.4 185.6 905.9 192.6 903.1 204 907.4 211.8 904.3 222.7 908.3 231.4 904.9 241.5 908.6 251 904.9 260.5 908.3 270.6 904.3 279.3 907.4 290.2 903.1 298 905.9 309.4 901.4 316.4 903.8 328.4 899.1 334.4 901.1 346.8 896.3 351.9 897.9 364.6 893 368.8 894.2 381.8 889.1 384.9 889.9 398.1 884.8 400.2 885.2 413.6 880 414.6 880 428 874.7 428 874.3 441.3 869.1 440.3 868.3 453.5 863.2 451.4 861.9 464.4 856.9 461.3 855.3 474 850.3 469.9 848.3 482.3 843.5 477.1 841.1 489.1 836.5 483 833.7 494.4 829.3 487.4 826.2 498.2 822 490.4 818.6 500.5 814.6 491.9 810.9 483.8 810.9 483.8 814.4 476.2 811.1 470.1 810.9 469.8 814.2 463.7 810.9 458.6 814 453.7 810.9 449.7 813.9 445.8 810.9 442.6 808 439.5 810.9 437.1 808.1 434.8"/>
      <path class="cls-5" d="M1045.5,374m-29.3,0M948,624l97.5-250M955.6,623.2l89.6-268.8M963.3,620.9l81-286M970.8,617.1l72-301.5M978.1,611.8l62.6-315.1M985.3,605l52.8-326.7M992.3,596.8l42.6-336.3m-36,326.7,32.2-343.8m-25.8,332.9,21.6-349.2m-15.6,337,10.8-352.5M1016.5,551V197m5.6,339.4-10.8-352.5m15.6,337-21.6-349.2m25.8,332.9L998.9,160.8m36,326.7L992.3,151.2m45.8,318.5L985.3,143m55.4,308.3L978.1,136.2m64.7,296.2-72-301.5m73.5,282.2-81-286m81.9,266.5L955.6,124.8M1045.5,374,948,124m69,73.5H948m74.1,338.9L948,551.3m63.3-367.4L948,196.7m78.9,324.2L948,553m-.1-358,57.4-23.3m25.8,332.9L948,555.8m50.9-395-51,31.5m87,295.2L948,559.9m44.3-408.7-44.3,37m90.1,281.5L948,565.3M985.3,143,948,182.6m92.7,268.7L948,572.4m30.1-436.2L948,175.6m94.8,256.8L948,581.3m22.8-450.4L948,166.7m96.3,246.4L947.8,592.8m15.5-465.7L948,155.6m97.2,238L948,606.5m7.6-481.7L948,141.5m0,0,97.2,212.9M948,155.5l96.3,179.4M948,166.7l94.8,148.9m-2.1-18.9L948,175.6m90.1,102.7L948,182.7m86.9,77.8L948,188.1m0,4.1,83.1,51.2m-4.2-16.3L948,195m0,1.7,74.1,14.9M955.6,623.2,948,606.5m.1-13.8,15.2,28.2m7.5-3.8L948,581.3m30.1,30.5L948,572.4m0-7.1L985.3,605m7-8.2L948,559.9m50.9,27.3L948,555.8m57.3,20.5L948,553m63.3,11.1L948,551.3m69-.8H948" transform="translate(-137 -123)"/>
    </g>
  </g>
</svg>
