<svg xmlns="http://www.w3.org/2000/svg" xmlns:xlink="http://www.w3.org/1999/xlink" viewBox="0 0 909 502">
  <defs>
    <style>
      .cls-4, .cls-5, .cls-6 {
      fill: none;
      stroke-miterlimit: 10;
      }

      .cls-4 {
      stroke: url(#linear-gradient-4);
      }

      .cls-5 {
      stroke: url(#linear-gradient-5);
      }

      .cls-6 {
      stroke: url(#linear-gradient-6);
      }
    </style>
    <linearGradient id="linear-gradient-4" x1="850.03" y1="374" x2="948.54" y2="374" gradientUnits="userSpaceOnUse">
      <stop offset="0" stop-color="#47f"/>
      <stop offset="1" stop-color="#0070d9"/>
    </linearGradient>
    <linearGradient id="linear-gradient-5" x1="1144.01" y1="374" x2="1045.43" y2="374" gradientTransform="matrix(-1, 0, 0, 1, 1281.05, 0)" gradientUnits="userSpaceOnUse">
      <stop offset="0" stop-color="#12b"/>
      <stop offset="1" stop-color="#006"/>
    </linearGradient>
    <linearGradient id="linear-gradient-6" x1="542.75" y1="624.82" x2="542.75" y2="123" gradientUnits="userSpaceOnUse">
      <stop offset="0" stop-color="#14a"/>
      <stop offset="0.5" stop-color="#03c"/>
      <stop offset="1" stop-color="#14a"/>
    </linearGradient>
  </defs>
  <g id="TOP" opacity="0.825">
      <path class="cls-4" d="M948,124m0,500M850.5,374m29.2,0M948,199m-.2-73.5M850.5,374,948,124M850.8,393.6l89.6-268.8M851.7,413.1l81-286m-7.5,3.8-72,301.5m64.7-296.2L855.3,451.3m2.6,18.4L910.7,143M861.1,487.5l42.6-336.3m-6.6,9.6L864.9,504.6m4.2,16.3,21.6-349.2M873.9,536.4l10.8-352.5M879.5,551V197m5.2,367.1L873.9,211.6m16.8,364.7L869.1,227.1m28,360.1L864.9,243.4m38.8,353.4L861.1,260.5M910.7,605,857.9,278.3m60,333.5L855.3,296.7m69.9,320.4-72-301.5m79.5,305.3-81-286m88.7,288.3L850.8,354.4M948,624,850.5,374M948,197.5H879m69,353.8-63.3,12.8M948,196.7l-74.1,14.9M948,553l-57.3,23.3M947.9,195l-78.8,32.1M948,555.8l-50.9,31.4m50.8-394.9-83,51.1M948,559.9l-44.3,36.9M948,188.2l-86.9,72.3M948,565.3,910.7,605M948,182.6l-90.1,95.7M948,572.4l-30.1,39.4M948,175.6,855.3,296.7M948,581.3l-22.8,35.8M948,166.7,853.2,315.6m94.6,277.2-15.1,28.1m-81-286L948,155.6m0,450.9-7.6,16.7M948,141.5,850.8,354.4M948,141.5l-7.6-16.7m7.6,30.7-15.3-28.4m-7.5,3.8L948,166.7m-30.1-30.5L948,175.6M910.7,143,948,182.7m0,5.4-44.3-36.9m44.3,41-50.9-31.4M948,195l-57.3-23.3m57.3,25-63.3-12.8M948,606.5,850.8,393.6m.9,19.5,96.4,179.6m-.1-11.4L853.2,432.4m94.8,140L855.3,451.3m2.6,18.4L948,565.3m-86.9-77.8L948,559.9m-83.1-55.3L948,555.8m-78.9-34.9L948,553m0-1.7-74.1-14.9m5.1,14.1h69" transform="translate(-137 -123)"/>
      <path class="cls-5" d="M137.5,374m29.3,0M235,624,137.5,374m89.9,249.2L137.8,354.4m81.9,266.5-81-286m73.5,282.2-72-301.5m64.7,296.2L142.3,296.7M197.7,605,144.9,278.3m45.8,318.5L148.1,260.5m36,326.7L151.9,243.4m25.8,332.9L156.1,227.1m15.6,337L160.9,211.6M166.5,551V197m-5.6,339.4,10.8-352.5m-15.6,337,21.6-349.2M151.9,504.6l32.2-343.8m-36,326.7,42.6-336.3M144.9,469.7,197.7,143M142.3,451.3l62.6-315.1M140.2,432.4l72-301.5M138.7,413.1l81-286M137.8,393.6l89.6-268.8M137.5,374,235,124m-69,73.5h69M160.9,536.4,235,551.3M171.7,183.9,235,196.7M156.1,520.9,235,553m.1-358-57.4-23.3M151.9,504.6,235,555.8m-50.9-395,51,31.5m-87,295.2L235,559.9M190.7,151.2l44.3,37M144.9,469.7,235,565.3M197.7,143,235,182.6M142.3,451.3,235,572.4M204.9,136.2,235,175.6M140.2,432.4,235,581.3M212.2,130.9,235,166.7M138.7,413.1l96.5,179.7M219.7,127.1,235,155.6m-97.2,238L235,606.5m-7.6-481.7,7.6,16.7m0,0L137.8,354.4M235,155.5,138.7,334.9M235,166.7,140.2,315.6m2.1-18.9L235,175.6M144.9,278.3,235,182.7m-86.9,77.8L235,188.1m0,4.1-83.1,51.2m4.2-16.3L235,195m0,1.7-74.1,14.9m66.5,411.6,7.6-16.7m-.1-13.8-15.2,28.2m-7.5-3.8L235,581.3m-30.1,30.5L235,572.4m0-7.1L197.7,605m-7-8.2L235,559.9m-50.9,27.3L235,555.8m-57.3,20.5L235,553m-63.3,11.1L235,551.3m-69-.8h69" transform="translate(-137 -123)"/>
      <path class="cls-6" d="M352.5,123.5m588.5,1H227.4m705.6,3H219.7m706.3,3H212.2m705.8,6H204.9m706.1,7H404m375,0H197.7m706,8h-713m706.4,9-713,.3M891,171.5H177.7m707.3,12H171.7m708.3,14H166.5m707.5,14H160.2m709.8,16H156.1m708.8,16h-713m709.1,17H148.1m709.9,18H144.9m711.1,18H142.3M948,123.5l-713,.2M854,315.5H140.2m711.8,19H138.7m712.3,20H137.8m713.2,19H137.5m713.5,20H137.8m714.2,20H138.7m715.3,19H140.2m715.8,19H142.3m715.7,18-713.1.2M862,487.5H148.1m716.9,17H151.9m718.1,16H156.1m717.9,16H160.9m719.1,14H166.5m718.5,14H171.7m719.3,12H177.7m720.3,11-713.9-.3M904,596.5H190.7m720,8h-713m720.3,7-713.1.3M926,617.5H212.2m720.8,3-713.3.4M941,623.5m7,0s-540.6.8-713,.8m-7.6-.8,713-.3" transform="translate(-137 -123)"/>
  </g>
</svg>
