<svg xmlns="http://www.w3.org/2000/svg" xmlns:xlink="http://www.w3.org/1999/xlink" viewBox="0 0 725.5 501.5">
  <defs>
    <style>
      .cls-1, .cls-2 {
        fill: none;
        stroke-miterlimit: 10;
      }

      .cls-1 {
        stroke: url(#linear-gradient);
      }

      .cls-2 {
        stroke-dasharray: 12;
        stroke: url(#linear-gradient-2);
      }
    </style>
    <linearGradient id="linear-gradient" x1="947.38" y1="374" x2="1045.97" y2="374" gradientUnits="userSpaceOnUse">
      <stop offset="0" stop-color="#00ffc2"/>
      <stop offset="0.5" stop-color="#80a"/>
      <stop offset="1" stop-color="#3700aa"/>
    </linearGradient>
    <linearGradient id="linear-gradient-2" x1="682.97" y1="624.5" x2="682.97" y2="123" gradientUnits="userSpaceOnUse">
      <stop offset="0" stop-color="#00e9b2"/>
      <stop offset="0.02" stop-color="#14c6b1" stop-opacity="0.92"/>
      <stop offset="0.04" stop-color="#2c9daf" stop-opacity="0.84"/>
      <stop offset="0.06" stop-color="#4377ae" stop-opacity="0.76"/>
      <stop offset="0.09" stop-color="#5557ad" stop-opacity="0.69"/>
      <stop offset="0.12" stop-color="#653bac" stop-opacity="0.63"/>
      <stop offset="0.15" stop-color="#7225ab" stop-opacity="0.58"/>
      <stop offset="0.19" stop-color="#7c14ab" stop-opacity="0.54"/>
      <stop offset="0.24" stop-color="#8309aa" stop-opacity="0.52"/>
      <stop offset="0.31" stop-color="#8702aa" stop-opacity="0.5"/>
      <stop offset="0.5" stop-color="#80a" stop-opacity="0.5"/>
      <stop offset="0.69" stop-color="#8702aa" stop-opacity="0.5"/>
      <stop offset="0.76" stop-color="#8309aa" stop-opacity="0.52"/>
      <stop offset="0.81" stop-color="#7c14ab" stop-opacity="0.54"/>
      <stop offset="0.85" stop-color="#7225ab" stop-opacity="0.58"/>
      <stop offset="0.88" stop-color="#653bac" stop-opacity="0.63"/>
      <stop offset="0.91" stop-color="#5557ad" stop-opacity="0.69"/>
      <stop offset="0.94" stop-color="#4377ae" stop-opacity="0.76"/>
      <stop offset="0.96" stop-color="#2c9daf" stop-opacity="0.84"/>
      <stop offset="0.98" stop-color="#14c6b1" stop-opacity="0.92"/>
      <stop offset="1" stop-color="#00e9b2"/>
    </linearGradient>
  </defs>
  <g id="REAR">
    <path class="cls-1" d="M1045.5,374m-29.3,0M948,624l97.5-250M955.6,623.2l89.6-268.8M963.3,620.9l81-286M970.8,617.1l72-301.5M978.1,611.8l62.6-315.1M985.3,605l52.8-326.7M992.3,596.8l42.6-336.3m-36,326.7,32.2-343.8m-25.8,332.9,21.6-349.2m-15.6,337,10.8-352.5m-5.2,339.2V197.2m5.2,339.2-10.8-352.5m15.6,337-21.6-349.2m25.8,332.9L998.9,160.8m36,326.7L992.3,151.2m45.8,318.5L985.3,143m55.4,308.3L978.1,136.2m64.7,296.2-72-301.5m73.5,282.2-81-286m81.9,266.5L955.6,124.8M1045.5,374,948,124m68.9,73.2H948.2m73.9,339.2L948,551.3m63.3-367.4L948,196.7m78.9,324.2L948,553m-.1-358,57.4-23.3m25.8,332.9L948,555.8m50.9-395-51,31.5m87,295.2L948,559.9m44.3-408.7-44.3,37m90.1,281.5L948,565.3M985.3,143,948,182.6m92.7,268.7L948,572.4m30.1-436.2L948,175.6m94.8,256.8L948,581.3m22.8-450.4L948,166.7m96.3,246.4L947.8,592.8m15.5-465.7L948,155.6m97.2,238L948,606.5m7.6-481.7L948,141.5m0,0,97.2,212.9M948,155.5l96.3,179.4M948,166.7l94.8,148.9m-2.1-18.9L948,175.6m90.1,102.7L948,182.7m86.9,77.8L948,188.1m0,4.1,83.1,51.2m-4.2-16.3L948,195m0,1.7,74.1,14.9M955.6,623.2,948,606.5m.1-13.8,15.2,28.2m7.5-3.8L948,581.3m30.1,30.5L948,572.4m0-7.1L985.3,605m7-8.2L948,559.9m50.9,27.3L948,555.8m57.3,20.5L948,553m63.3,11.1L948,551.3m68.9-.5H948" transform="translate(-320.4 -123)"/>
    <path class="cls-2" d="M352.5,124.5s0,7.8-1.1,21.5C349,163,341,177,331,191c-6,9-11,20-6,30s11.8,19.8,16.8,29.8,9,20.5,9.7,31.7C351,305,337,322,327,341c-2,5-4,10-3,16,3.5,14,11.8,26.3,18.5,38.8a85.8,85.8,0,0,1,8.1,19.4C355,442,328,459,325,485c-1.5,11,3.3,20,8.9,28.8s12.3,17.4,14.6,27.6C360,573,330,596,320.9,623.5m31.6-500,603.1,1H352.5m610.8,3H352.5m618.3,3H352.5m625.6,6H352.5M985.3,143s-443.2.5-581.3.5H352.3m640,7.7-589,.3H351.2m647.7,9.3-561.2-.3h-35c-17.7.5-35.7.5-54.1,0m656.7,11.2-549.1-.2H436.6c-30.6.5-62.6.5-93.2,0m667.9,12.4s-401.6-.4-556.2-.4H435.6c-32.6.5-66.6.5-100,0m681.3,13.7-562.8.3H434.8c-35.8.5-72.8.5-109,0m696.3,14.1H433.9c-37.9.5-74.9.5-112.8,0m705.8,15.6s-424.5.4-574.7.4H433.3c-35.3.5-71.3.5-106.4,0m704.2,15.9H432.5c-31.5.5-63.5.5-94.4,0m696.8,17H432c-28,.5-56,.5-84.4,0m690.5,17.8-639,.2h-47m688.6,18.2-609.6-.2H398.9c-15.9.5-31.9.5-48.2,0m596.8-173h-595m690.3,192.1h-612c-28.8.5-58.8.5-88,0m701.5,19.4-595.6-.4H430.5c-33.5.5-67.5.5-100.7,0m715.4,19.9H430.3c-36.3.5-73.3.5-109.2,0M1045.5,374s-452.3-.5-597-.5H430.3c-34.3.5-67.3.5-101.2,0m716.1,20.1H430.3c-29.3-.5-58.3,2.5-87.6,0m701.6,19.6-613.8.4h-32l-23.6.8c-7.9.1-15.9-.1-24-.8m691.9,18.9H398.6c-15.6.5-32.6.5-48.7,0m690.8,18.8-591.2.2H431.1q-45.2.8-90.1,0m697.1,18.2-588.2-.2H431.4c-34.4.5-69.4.5-103,0m706.5,18H432c-37,.5-74,.5-110.8,0m709.9,17.1H432.5c-35.5.5-69.5.5-104.7,0m699.1,16.4s-424.5-.4-574.7-.4H433.3c-31.3.5-63.3.5-94.3,0m683.1,15.9H402.2c-17.2.5-35.2.5-52.1,0m666.8,14.3-615.8-.3H351.7m659.6,13.6-609.7.4H350.9m654.4,11.8-568.7.2H401.9c-17.9-.5-36.9-.5-55.2,0m652.2,10.7-541.3.3H437.7c-31.7.5-64.7-1.5-97,0m651.6,9.3-533.6-.3H438.6c-34.6.5-68.6-1.5-104.1,0M985.3,605s-363.1-.5-525.2-.5H439.7c-36.7.5-73.7-1.5-110.9,0m649.3,7.3-519-.3H423.4q-50.1-.9-99-.1m646.4,5.6s-344.2.4-510.2.4H424.4c-34.4-.6-68.4-.6-102.6-.1m641.5,3.4s-333.3-.4-501.4-.4H425.3c-35.3-.6-69.3-.6-104.2-.1M948,624s-314.2-.5-484.6-.5H426.3c-35.3-.5-70.3-.5-105.4,0m634.7-.3s-318,.3-490.4.3H428.1c-35.1-.5-71.1-.5-106.2,0" transform="translate(-320.4 -123)"/>
  </g>
</svg>
