<svg xmlns="http://www.w3.org/2000/svg" xmlns:xlink="http://www.w3.org/1999/xlink" viewBox="0 0 725.5 501.5">
  <defs>
    <style>
      .cls-3, .cls-4 {
        fill: none;
        stroke-miterlimit: 10;
      }
      .cls-3 {
        stroke: url(#linear-gradient-3);
      }

      .cls-4 {
        stroke: url(#linear-gradient-4);
      }
    </style>
    <linearGradient id="linear-gradient-3" x1="850.03" y1="374" x2="948.54" y2="374" gradientUnits="userSpaceOnUse">
      <stop offset="0" stop-color="#0065ff"/>
      <stop offset="0.51" stop-color="#b9bf00"/>
      <stop offset="1" stop-color="#00e9b2"/>
    </linearGradient>
    <linearGradient id="linear-gradient-4" x1="634.22" y1="624.05" x2="634.22" y2="123" gradientUnits="userSpaceOnUse">
      <stop offset="0" stop-color="#00e9b2"/>
      <stop offset="0.07" stop-color="#b9bf00"/>
      <stop offset="0.5" stop-color="#0065ff"/>
      <stop offset="0.93" stop-color="#b9bf00"/>
      <stop offset="1" stop-color="#00e9b2"/>
    </linearGradient>
  </defs>
  <g id="TOP">
    <path class="cls-3" d="M948,124m0,500M850.5,374m29.2,0M948,199m-.2-73.5M850.5,374,948,124M850.8,393.6l89.6-268.8M851.7,413.1l81-286m-7.5,3.8-72,301.5m64.7-296.2L855.3,451.3m2.6,18.4L910.7,143M861.1,487.5l42.6-336.3m-6.6,9.6L864.9,504.6m4.2,16.3,21.6-349.2M873.9,536.4l10.8-352.5m-5.6,366.9V197.2m5.6,366.9L873.9,211.6m16.8,364.7L869.1,227.1m28,360.1L864.9,243.4m38.8,353.4L861.1,260.5M910.7,605,857.9,278.3m60,333.5L855.3,296.7m69.9,320.4-72-301.5m79.5,305.3-81-286m88.7,288.3L850.8,354.4M948,624,850.5,374m97.7-176.8H879.1M948,551.3l-63.3,12.8M948,196.7l-74.1,14.9M948,553l-57.3,23.3M947.9,195l-78.8,32.1M948,555.8l-50.9,31.4m50.8-394.9-83,51.1M948,559.9l-44.3,36.9M948,188.2l-86.9,72.3M948,565.3,910.7,605M948,182.6l-90.1,95.7M948,572.4l-30.1,39.4M948,175.6,855.3,296.7M948,581.3l-22.8,35.8M948,166.7,853.2,315.6m94.6,277.2-15.1,28.1m-81-286L948,155.6m0,450.9-7.6,16.7M948,141.5,850.8,354.4M948,141.5l-7.6-16.7m7.6,30.7-15.3-28.4m-7.5,3.8L948,166.7m-30.1-30.5L948,175.6M910.7,143,948,182.7m0,5.4-44.3-36.9m44.3,41-50.9-31.4M948,195l-57.3-23.3m57.3,25-63.3-12.8M948,606.5,850.8,393.6m.9,19.5,96.4,179.6m-.1-11.4L853.2,432.4m94.8,140L855.3,451.3m2.6,18.4L948,565.3m-86.9-77.8L948,559.9m-83.1-55.3L948,555.8m-78.9-34.9L948,553m0-1.7-74.1-14.9m5.2,14.4H948" transform="translate(-320.4 -123)"/>
    <path class="cls-4" d="M352.5,124.5s0,7.8-1.1,21.5C349,163,341,177,331,191c-6,9-11,20-6,30s11.8,19.8,16.8,29.8,9,20.5,9.7,31.7C351,305,337,322,327,341c-2,5-4,10-3,16,3.5,14,11.8,26.3,18.5,38.8a85.8,85.8,0,0,1,8.1,19.4C355,442,328,459,325,485c-1.5,11,3.3,20,8.9,28.8s12.3,17.4,14.6,27.6C360,573,330,596,320.9,623.5m31.6-500,588,1h-588m580,3h-580m573,3h-573m565,6h-565m558,7H352.3m551.2,8H351.2m546.3,9H402.7c-17.7.5-35.7.5-54.1,0m541.9,11H436.6c-30.6.5-62.6.5-93.2,0m541.1,12H435.6c-32.6.5-66.6.5-100,0m543.9,14H434.8c-35.8.5-72.8.5-109,0m547.7,14H433.9c-37.9.5-74.9.5-112.8,0m548.4,16H433.3c-35.3.5-71.3.5-106.4,0m537.6,16h-432c-31.5.5-63.5.5-94.4,0m523.4,17H432c-28,.5-56,.5-84.4,0m509.9,18H352.1m503.4,18H398.9c-15.9.5-31.9.5-48.2,0m596.8-173h-595m501,192H430.8c-28.8.5-58.8.5-88,0m508.7,19h-421c-33.5.5-67.5.5-100.7,0m520.7,20H430.3c-36.3.5-73.3.5-109.2,0m529.4,19H430.3c-34.3.5-67.3.5-101.2,0m521.4,20H430.3c-29.3-.5-58.3,2.5-87.6,0m508.8,20h-453l-23.6.8c-7.9.1-15.9-.1-24-.8m502.6,19H398.6c-15.6.5-32.6.5-48.7,0m505.6,19H431.1q-45.2.8-90.1,0m516.5,18H431.4c-34.4.5-69.4.5-103,0m533.1,18H432c-37,.5-74,.5-110.8,0m543.3,17h-432c-35.5.5-69.5.5-104.7,0m541.7,16H433.3c-31.3.5-63.3.5-94.3,0m534.5,16H402.2c-17.2.5-35.2.5-52.1,0m529.4,14H351.7m532.8,14H350.9m539.6,12H401.9c-17.9-.5-36.9-.5-55.2,0m550.8,11H437.7c-31.7.5-64.7-1.5-97,0m562.8,9H438.6c-34.6.5-68.6-1.5-104.1,0m576,8H439.7c-36.7.5-73.7-1.5-110.9,0m588.7,7H423.4q-50.1-.9-99-.1m601.1,6H424.4c-34.4-.6-68.4-.6-102.6-.1m610.7,3H425.3c-35.3-.6-69.3-.6-104.2-.1m619.4,3H426.3c-35.3-.5-70.3-.5-105.4,0m627.1,0H428.1c-35.1-.5-71.1-.5-106.2,0" transform="translate(-320.4 -123)"/>
  </g>
</svg>
